<svg width="70" height="20" viewBox="0 0 70 20" fill="none" xmlns="http://www.w3.org/2000/svg">
<path d="M12 8H70V11H12V8Z" fill="#C1C1C1"/>
<path fill-rule="evenodd" clip-rule="evenodd" d="M69 9H13V10H69V9ZM12 8V11H70V8H12Z" fill="#C1C1C1"/>
<path d="M0 10C0 4.47715 4.47715 0 10 0C15.5228 0 20 4.47715 20 10C20 15.5228 15.5228 20 10 20C4.47715 20 0 15.5228 0 10Z" fill="#C1C1C1"/>
<path fill-rule="evenodd" clip-rule="evenodd" d="M1 10C1 14.9706 5.02944 19 10 19C14.9706 19 19 14.9706 19 10C19 5.02944 14.9706 1 10 1C5.02944 1 1 5.02944 1 10ZM10 0C4.47715 0 0 4.47715 0 10C0 15.5228 4.47715 20 10 20C15.5228 20 20 15.5228 20 10C20 4.47715 15.5228 0 10 0Z" fill="#C1C1C1"/>
<path d="M5 10C5 7.23858 7.23858 5 10 5C12.7614 5 15 7.23858 15 10C15 12.7614 12.7614 15 10 15C7.23858 15 5 12.7614 5 10Z" fill="white"/>
<path fill-rule="evenodd" clip-rule="evenodd" d="M6 10C6 12.2091 7.79086 14 10 14C12.2091 14 14 12.2091 14 10C14 7.79086 12.2091 6 10 6C7.79086 6 6 7.79086 6 10ZM10 5C7.23858 5 5 7.23858 5 10C5 12.7614 7.23858 15 10 15C12.7614 15 15 12.7614 15 10C15 7.23858 12.7614 5 10 5Z" fill="white"/>
</svg>
